# xmcd CD database file
#
# Track frame offsets:
#	150
#	18033
#	42009
#	61597
#	78680
#	95036
#	117138
#	130791
#	149821
#	166128
#	199197
#
# Disc length: 2688 seconds
#
# Revision: 0
# Processed by: cddbd v1.5.1PL0 Copyright (c) Steve Scherf et al.
# Submitted via: CDex 1.51
#
DISCID=8e0a7e0b
DTITLE=Stacey Knights - Through The Window
DYEAR=2002
DGENRE=Jazz
TTITLE0=Snoopy's First Date
TTITLE1=When I'm Dancing With You
TTITLE2=The Lady In Red
TTITLE3=Busted
TTITLE4=The Golden Rule
TTITLE5=Night In Cordoba
TTITLE6=Dancer On The Drums
TTITLE7=How Deep Is Your Love
TTITLE8=Croatia
TTITLE9=Through The Window
TTITLE10=Data
EXTD=YEAR: 2002
EXTT0=
EXTT1=
EXTT2=
EXTT3=
EXTT4=
EXTT5=
EXTT6=
EXTT7=
EXTT8=
EXTT9=
EXTT10=
PLAYORDER=
